M48
METRIC,LZ,000.000
;FILE_FORMAT=3:3
;TYPE=PLATED
;Layer: Drill PTH
;EasyEDA v6.4.25, 2022-01-12T14:51:12+01:00
;7a201c4e50c24bc0a63e83562ee2f331,e596f8a6ee9548d7bb734fb2f4e531ed,10
;Gerber Generator version 0.2
;Holesize 1 = 0.915 mm
T01C0.915
;Holesize 2 = 1.016 mm
T02C1.016
%
G05
G90
T01
X013970Y040132
X013970Y042672
X013970Y045212
X013970Y047752
X013970Y050292
X013970Y052832
X013970Y055372
X013970Y057912
X013970Y060452
X013970Y062992
X013970Y065532
X013970Y068072
X013970Y070612
X013970Y073152
X013970Y075692
T02
X075184Y050165
X075184Y052705
X075184Y055245
X075184Y057785
X075184Y060325
X075184Y062865
X075184Y065405
X075184Y067945
X052324Y050165
X052324Y052705
X052324Y055245
X052324Y057785
X052324Y060325
X052324Y062865
X052324Y065405
X052324Y067945
M30
