G04 Layer: TopLayer*
G04 EasyEDA v6.4.25, 2022-01-12T14:51:12+01:00*
G04 7a201c4e50c24bc0a63e83562ee2f331,e596f8a6ee9548d7bb734fb2f4e531ed,10*
G04 Gerber Generator version 0.2*
G04 Scale: 100 percent, Rotated: No, Reflected: No *
G04 Dimensions in millimeters *
G04 leading zeros omitted , absolute positions ,4 integer and 5 decimal *
%FSLAX45Y45*%
%MOMM*%

%ADD10C,0.2540*%
%ADD11C,1.5240*%
%ADD12R,3.2918X1.8288*%

%LPD*%
D10*
X1397000Y4267200D02*
G01*
X1231900Y4432300D01*
X1231900Y4773168D01*
X1360931Y4902200D01*
X4925313Y4902200D01*
X5039613Y5016500D01*
X5425186Y5270500D02*
G01*
X5461000Y5270500D01*
X5461000Y5651500D01*
X1790700Y5651500D01*
X1397000Y6045200D01*
X7518400Y6032500D02*
G01*
X6496811Y6032500D01*
X5607811Y5143500D01*
X1536700Y5143500D01*
X1397000Y5283200D01*
X7711186Y5778500D02*
G01*
X7797800Y5778500D01*
X7797800Y6159500D01*
X2044700Y6159500D01*
X1397000Y6807200D01*
X7531100Y5524500D02*
G01*
X8001000Y5524500D01*
X8001000Y6413500D01*
X2372613Y6413500D01*
X1397000Y7569200D01*
X1397000Y4775200D02*
G01*
X5440934Y4775200D01*
X6317234Y5651500D01*
X7899400Y5651500D01*
X7899400Y6286500D01*
X7711186Y6286500D01*
X7518402Y5524492D02*
G01*
X7711112Y5524492D01*
X7518402Y5778492D02*
G01*
X7711112Y5778492D01*
X5232402Y5778492D02*
G01*
X1917702Y5778492D01*
X1397002Y6299192D01*
X5232402Y5270492D02*
G01*
X5425112Y5270492D01*
X5232402Y6032492D02*
G01*
X1917702Y6032492D01*
X1397002Y6553192D01*
X5232402Y5524492D02*
G01*
X1409702Y5524492D01*
X1397002Y5537192D01*
X7518402Y6286492D02*
G01*
X7711112Y6286492D01*
X1397002Y4521192D02*
G01*
X5487316Y4521192D01*
X6236616Y5270492D01*
X7518402Y5270492D01*
X5232402Y5016492D02*
G01*
X5039692Y5016492D01*
D11*
G01*
X1397000Y4013200D03*
G01*
X1397000Y4267200D03*
G01*
X1397000Y4521200D03*
G01*
X1397000Y4775200D03*
G01*
X1397000Y5029200D03*
G01*
X1397000Y5283200D03*
G01*
X1397000Y5537200D03*
G01*
X1397000Y5791200D03*
G01*
X1397000Y6045200D03*
G01*
X1397000Y6299200D03*
G01*
X1397000Y6553200D03*
G01*
X1397000Y6807200D03*
G01*
X1397000Y7061200D03*
G01*
X1397000Y7315200D03*
G01*
X1397000Y7569200D03*
G36*
X7353808Y5107939D02*
G01*
X7682991Y5107939D01*
X7682991Y4925060D01*
X7353808Y4925060D01*
G37*
G36*
X7353808Y5361939D02*
G01*
X7682991Y5361939D01*
X7682991Y5179060D01*
X7353808Y5179060D01*
G37*
G36*
X7353808Y5615939D02*
G01*
X7682991Y5615939D01*
X7682991Y5433060D01*
X7353808Y5433060D01*
G37*
G36*
X7353808Y5869939D02*
G01*
X7682991Y5869939D01*
X7682991Y5687060D01*
X7353808Y5687060D01*
G37*
G36*
X7353808Y6123939D02*
G01*
X7682991Y6123939D01*
X7682991Y5941060D01*
X7353808Y5941060D01*
G37*
G36*
X7353808Y6377939D02*
G01*
X7682991Y6377939D01*
X7682991Y6195060D01*
X7353808Y6195060D01*
G37*
G36*
X7353808Y6631939D02*
G01*
X7682991Y6631939D01*
X7682991Y6449060D01*
X7353808Y6449060D01*
G37*
G36*
X7353808Y6885939D02*
G01*
X7682991Y6885939D01*
X7682991Y6703060D01*
X7353808Y6703060D01*
G37*
D12*
G01*
X5232400Y5016500D03*
G01*
X5232400Y5270500D03*
G01*
X5232400Y5524500D03*
G01*
X5232400Y5778500D03*
G01*
X5232400Y6032500D03*
G01*
X5232400Y6286500D03*
G01*
X5232400Y6540500D03*
G01*
X5232400Y6794500D03*
M02*
