G04 Layer: TopSilkLayer*
G04 EasyEDA v6.4.25, 2022-01-12T14:51:12+01:00*
G04 7a201c4e50c24bc0a63e83562ee2f331,e596f8a6ee9548d7bb734fb2f4e531ed,10*
G04 Gerber Generator version 0.2*
G04 Scale: 100 percent, Rotated: No, Reflected: No *
G04 Dimensions in millimeters *
G04 leading zeros omitted , absolute positions ,4 integer and 5 decimal *
%FSLAX45Y45*%
%MOMM*%

%ADD10C,0.2540*%
%ADD13C,0.2032*%
%ADD14C,0.1524*%

%LPD*%
D13*
X2667000Y7977378D02*
G01*
X2667000Y7783576D01*
X2667000Y7977378D02*
G01*
X2787141Y7977378D01*
X2667000Y7885176D02*
G01*
X2740913Y7885176D01*
X2667000Y7783576D02*
G01*
X2787141Y7783576D01*
X2977388Y7949692D02*
G01*
X2958845Y7968234D01*
X2931159Y7977378D01*
X2894329Y7977378D01*
X2866390Y7968234D01*
X2848102Y7949692D01*
X2848102Y7931150D01*
X2857245Y7912862D01*
X2866390Y7903463D01*
X2884931Y7894320D01*
X2940304Y7875778D01*
X2958845Y7866634D01*
X2967990Y7857489D01*
X2977388Y7838947D01*
X2977388Y7811262D01*
X2958845Y7792720D01*
X2931159Y7783576D01*
X2894329Y7783576D01*
X2866390Y7792720D01*
X2848102Y7811262D01*
X3038347Y7977378D02*
G01*
X3038347Y7783576D01*
X3038347Y7977378D02*
G01*
X3121406Y7977378D01*
X3149091Y7968234D01*
X3158490Y7959089D01*
X3167634Y7940547D01*
X3167634Y7912862D01*
X3158490Y7894320D01*
X3149091Y7885176D01*
X3121406Y7875778D01*
X3038347Y7875778D01*
X3417061Y7977378D02*
G01*
X3389375Y7968234D01*
X3379977Y7949692D01*
X3379977Y7931150D01*
X3389375Y7912862D01*
X3407663Y7903463D01*
X3444747Y7894320D01*
X3472434Y7885176D01*
X3490975Y7866634D01*
X3500120Y7848092D01*
X3500120Y7820405D01*
X3490975Y7801863D01*
X3481577Y7792720D01*
X3453891Y7783576D01*
X3417061Y7783576D01*
X3389375Y7792720D01*
X3379977Y7801863D01*
X3370834Y7820405D01*
X3370834Y7848092D01*
X3379977Y7866634D01*
X3398520Y7885176D01*
X3426206Y7894320D01*
X3463290Y7903463D01*
X3481577Y7912862D01*
X3490975Y7931150D01*
X3490975Y7949692D01*
X3481577Y7968234D01*
X3453891Y7977378D01*
X3417061Y7977378D01*
X3570224Y7931150D02*
G01*
X3570224Y7940547D01*
X3579622Y7959089D01*
X3588765Y7968234D01*
X3607308Y7977378D01*
X3644138Y7977378D01*
X3662679Y7968234D01*
X3671824Y7959089D01*
X3681222Y7940547D01*
X3681222Y7922005D01*
X3671824Y7903463D01*
X3653536Y7875778D01*
X3561079Y7783576D01*
X3690365Y7783576D01*
X3862070Y7949692D02*
G01*
X3852925Y7968234D01*
X3825240Y7977378D01*
X3806697Y7977378D01*
X3779011Y7968234D01*
X3760470Y7940547D01*
X3751325Y7894320D01*
X3751325Y7848092D01*
X3760470Y7811262D01*
X3779011Y7792720D01*
X3806697Y7783576D01*
X3816095Y7783576D01*
X3843781Y7792720D01*
X3862070Y7811262D01*
X3871468Y7838947D01*
X3871468Y7848092D01*
X3862070Y7875778D01*
X3843781Y7894320D01*
X3816095Y7903463D01*
X3806697Y7903463D01*
X3779011Y7894320D01*
X3760470Y7875778D01*
X3751325Y7848092D01*
X4043172Y7949692D02*
G01*
X4034027Y7968234D01*
X4006341Y7977378D01*
X3987800Y7977378D01*
X3960113Y7968234D01*
X3941572Y7940547D01*
X3932427Y7894320D01*
X3932427Y7848092D01*
X3941572Y7811262D01*
X3960113Y7792720D01*
X3987800Y7783576D01*
X3996943Y7783576D01*
X4024629Y7792720D01*
X4043172Y7811262D01*
X4052570Y7838947D01*
X4052570Y7848092D01*
X4043172Y7875778D01*
X4024629Y7894320D01*
X3996943Y7903463D01*
X3987800Y7903463D01*
X3960113Y7894320D01*
X3941572Y7875778D01*
X3932427Y7848092D01*
X4255770Y7977378D02*
G01*
X4255770Y7783576D01*
X4255770Y7977378D02*
G01*
X4320286Y7977378D01*
X4347972Y7968234D01*
X4366513Y7949692D01*
X4375658Y7931150D01*
X4385056Y7903463D01*
X4385056Y7857489D01*
X4375658Y7829550D01*
X4366513Y7811262D01*
X4347972Y7792720D01*
X4320286Y7783576D01*
X4255770Y7783576D01*
X4446015Y7977378D02*
G01*
X4455159Y7968234D01*
X4464304Y7977378D01*
X4455159Y7986776D01*
X4446015Y7977378D01*
X4455159Y7912862D02*
G01*
X4455159Y7783576D01*
X4626863Y7885176D02*
G01*
X4617720Y7903463D01*
X4590034Y7912862D01*
X4562347Y7912862D01*
X4534661Y7903463D01*
X4525263Y7885176D01*
X4534661Y7866634D01*
X4552950Y7857489D01*
X4599177Y7848092D01*
X4617720Y7838947D01*
X4626863Y7820405D01*
X4626863Y7811262D01*
X4617720Y7792720D01*
X4590034Y7783576D01*
X4562347Y7783576D01*
X4534661Y7792720D01*
X4525263Y7811262D01*
X4687824Y7912862D02*
G01*
X4687824Y7718805D01*
X4687824Y7885176D02*
G01*
X4706365Y7903463D01*
X4724908Y7912862D01*
X4752593Y7912862D01*
X4771136Y7903463D01*
X4789424Y7885176D01*
X4798822Y7857489D01*
X4798822Y7838947D01*
X4789424Y7811262D01*
X4771136Y7792720D01*
X4752593Y7783576D01*
X4724908Y7783576D01*
X4706365Y7792720D01*
X4687824Y7811262D01*
X4859781Y7977378D02*
G01*
X4859781Y7783576D01*
X5031486Y7912862D02*
G01*
X5031486Y7783576D01*
X5031486Y7885176D02*
G01*
X5012943Y7903463D01*
X4994656Y7912862D01*
X4966970Y7912862D01*
X4948427Y7903463D01*
X4929886Y7885176D01*
X4920741Y7857489D01*
X4920741Y7838947D01*
X4929886Y7811262D01*
X4948427Y7792720D01*
X4966970Y7783576D01*
X4994656Y7783576D01*
X5012943Y7792720D01*
X5031486Y7811262D01*
X5101590Y7912862D02*
G01*
X5157215Y7783576D01*
X5212588Y7912862D02*
G01*
X5157215Y7783576D01*
X5138674Y7746492D01*
X5120131Y7727950D01*
X5101590Y7718805D01*
X5092445Y7718805D01*
X5554218Y7931150D02*
G01*
X5545074Y7949692D01*
X5526531Y7968234D01*
X5507990Y7977378D01*
X5471159Y7977378D01*
X5452618Y7968234D01*
X5434329Y7949692D01*
X5424931Y7931150D01*
X5415788Y7903463D01*
X5415788Y7857489D01*
X5424931Y7829550D01*
X5434329Y7811262D01*
X5452618Y7792720D01*
X5471159Y7783576D01*
X5507990Y7783576D01*
X5526531Y7792720D01*
X5545074Y7811262D01*
X5554218Y7829550D01*
X5661406Y7912862D02*
G01*
X5642863Y7903463D01*
X5624575Y7885176D01*
X5615177Y7857489D01*
X5615177Y7838947D01*
X5624575Y7811262D01*
X5642863Y7792720D01*
X5661406Y7783576D01*
X5689091Y7783576D01*
X5707634Y7792720D01*
X5726175Y7811262D01*
X5735320Y7838947D01*
X5735320Y7857489D01*
X5726175Y7885176D01*
X5707634Y7903463D01*
X5689091Y7912862D01*
X5661406Y7912862D01*
X5796279Y7912862D02*
G01*
X5796279Y7783576D01*
X5796279Y7875778D02*
G01*
X5823965Y7903463D01*
X5842508Y7912862D01*
X5870193Y7912862D01*
X5888736Y7903463D01*
X5897879Y7875778D01*
X5897879Y7783576D01*
X5958840Y7912862D02*
G01*
X5958840Y7783576D01*
X5958840Y7875778D02*
G01*
X5986525Y7903463D01*
X6005068Y7912862D01*
X6032754Y7912862D01*
X6051295Y7903463D01*
X6060440Y7875778D01*
X6060440Y7783576D01*
X6121400Y7857489D02*
G01*
X6232143Y7857489D01*
X6232143Y7875778D01*
X6223000Y7894320D01*
X6213856Y7903463D01*
X6195313Y7912862D01*
X6167627Y7912862D01*
X6149086Y7903463D01*
X6130543Y7885176D01*
X6121400Y7857489D01*
X6121400Y7838947D01*
X6130543Y7811262D01*
X6149086Y7792720D01*
X6167627Y7783576D01*
X6195313Y7783576D01*
X6213856Y7792720D01*
X6232143Y7811262D01*
X6404102Y7885176D02*
G01*
X6385559Y7903463D01*
X6367018Y7912862D01*
X6339331Y7912862D01*
X6320790Y7903463D01*
X6302502Y7885176D01*
X6293104Y7857489D01*
X6293104Y7838947D01*
X6302502Y7811262D01*
X6320790Y7792720D01*
X6339331Y7783576D01*
X6367018Y7783576D01*
X6385559Y7792720D01*
X6404102Y7811262D01*
X6492747Y7977378D02*
G01*
X6492747Y7820405D01*
X6501891Y7792720D01*
X6520434Y7783576D01*
X6538975Y7783576D01*
X6465061Y7912862D02*
G01*
X6529577Y7912862D01*
X6645909Y7912862D02*
G01*
X6627622Y7903463D01*
X6609079Y7885176D01*
X6599936Y7857489D01*
X6599936Y7838947D01*
X6609079Y7811262D01*
X6627622Y7792720D01*
X6645909Y7783576D01*
X6673850Y7783576D01*
X6692138Y7792720D01*
X6710679Y7811262D01*
X6719824Y7838947D01*
X6719824Y7857489D01*
X6710679Y7885176D01*
X6692138Y7903463D01*
X6673850Y7912862D01*
X6645909Y7912862D01*
X6780784Y7912862D02*
G01*
X6780784Y7783576D01*
X6780784Y7857489D02*
G01*
X6790181Y7885176D01*
X6808470Y7903463D01*
X6827011Y7912862D01*
X6854697Y7912862D01*
X3543300Y3799078D02*
G01*
X3543300Y3605276D01*
X3543300Y3799078D02*
G01*
X3608070Y3799078D01*
X3635756Y3789934D01*
X3654043Y3771392D01*
X3663441Y3752850D01*
X3672586Y3725163D01*
X3672586Y3679189D01*
X3663441Y3651250D01*
X3654043Y3632962D01*
X3635756Y3614420D01*
X3608070Y3605276D01*
X3543300Y3605276D01*
X3733545Y3679189D02*
G01*
X3844290Y3679189D01*
X3844290Y3697478D01*
X3835145Y3716020D01*
X3826002Y3725163D01*
X3807459Y3734562D01*
X3779774Y3734562D01*
X3761231Y3725163D01*
X3742690Y3706876D01*
X3733545Y3679189D01*
X3733545Y3660647D01*
X3742690Y3632962D01*
X3761231Y3614420D01*
X3779774Y3605276D01*
X3807459Y3605276D01*
X3826002Y3614420D01*
X3844290Y3632962D01*
X4006850Y3706876D02*
G01*
X3997706Y3725163D01*
X3970020Y3734562D01*
X3942334Y3734562D01*
X3914647Y3725163D01*
X3905250Y3706876D01*
X3914647Y3688334D01*
X3933190Y3679189D01*
X3979163Y3669792D01*
X3997706Y3660647D01*
X4006850Y3642105D01*
X4006850Y3632962D01*
X3997706Y3614420D01*
X3970020Y3605276D01*
X3942334Y3605276D01*
X3914647Y3614420D01*
X3905250Y3632962D01*
X4067809Y3799078D02*
G01*
X4077208Y3789934D01*
X4086352Y3799078D01*
X4077208Y3808476D01*
X4067809Y3799078D01*
X4077208Y3734562D02*
G01*
X4077208Y3605276D01*
X4258309Y3734562D02*
G01*
X4258309Y3586734D01*
X4248911Y3559047D01*
X4239768Y3549650D01*
X4221225Y3540505D01*
X4193540Y3540505D01*
X4174997Y3549650D01*
X4258309Y3706876D02*
G01*
X4239768Y3725163D01*
X4221225Y3734562D01*
X4193540Y3734562D01*
X4174997Y3725163D01*
X4156709Y3706876D01*
X4147311Y3679189D01*
X4147311Y3660647D01*
X4156709Y3632962D01*
X4174997Y3614420D01*
X4193540Y3605276D01*
X4221225Y3605276D01*
X4239768Y3614420D01*
X4258309Y3632962D01*
X4319270Y3734562D02*
G01*
X4319270Y3605276D01*
X4319270Y3697478D02*
G01*
X4346956Y3725163D01*
X4365243Y3734562D01*
X4392929Y3734562D01*
X4411472Y3725163D01*
X4420870Y3697478D01*
X4420870Y3605276D01*
X4481829Y3679189D02*
G01*
X4592574Y3679189D01*
X4592574Y3697478D01*
X4583429Y3716020D01*
X4574031Y3725163D01*
X4555490Y3734562D01*
X4527804Y3734562D01*
X4509515Y3725163D01*
X4490974Y3706876D01*
X4481829Y3679189D01*
X4481829Y3660647D01*
X4490974Y3632962D01*
X4509515Y3614420D01*
X4527804Y3605276D01*
X4555490Y3605276D01*
X4574031Y3614420D01*
X4592574Y3632962D01*
X4764277Y3799078D02*
G01*
X4764277Y3605276D01*
X4764277Y3706876D02*
G01*
X4745990Y3725163D01*
X4727447Y3734562D01*
X4699761Y3734562D01*
X4681220Y3725163D01*
X4662677Y3706876D01*
X4653534Y3679189D01*
X4653534Y3660647D01*
X4662677Y3632962D01*
X4681220Y3614420D01*
X4699761Y3605276D01*
X4727447Y3605276D01*
X4745990Y3614420D01*
X4764277Y3632962D01*
X4967477Y3799078D02*
G01*
X4967477Y3605276D01*
X4967477Y3706876D02*
G01*
X4986020Y3725163D01*
X5004561Y3734562D01*
X5032247Y3734562D01*
X5050790Y3725163D01*
X5069077Y3706876D01*
X5078475Y3679189D01*
X5078475Y3660647D01*
X5069077Y3632962D01*
X5050790Y3614420D01*
X5032247Y3605276D01*
X5004561Y3605276D01*
X4986020Y3614420D01*
X4967477Y3632962D01*
X5148579Y3734562D02*
G01*
X5203952Y3605276D01*
X5259324Y3734562D02*
G01*
X5203952Y3605276D01*
X5185409Y3568192D01*
X5167122Y3549650D01*
X5148579Y3540505D01*
X5139436Y3540505D01*
X5462524Y3799078D02*
G01*
X5462524Y3605276D01*
X5462524Y3799078D02*
G01*
X5527293Y3799078D01*
X5554979Y3789934D01*
X5573522Y3771392D01*
X5582665Y3752850D01*
X5591809Y3725163D01*
X5591809Y3679189D01*
X5582665Y3651250D01*
X5573522Y3632962D01*
X5554979Y3614420D01*
X5527293Y3605276D01*
X5462524Y3605276D01*
X5708395Y3799078D02*
G01*
X5689854Y3789934D01*
X5671311Y3771392D01*
X5662168Y3752850D01*
X5652770Y3725163D01*
X5652770Y3679189D01*
X5662168Y3651250D01*
X5671311Y3632962D01*
X5689854Y3614420D01*
X5708395Y3605276D01*
X5745225Y3605276D01*
X5763768Y3614420D01*
X5782309Y3632962D01*
X5791454Y3651250D01*
X5800597Y3679189D01*
X5800597Y3725163D01*
X5791454Y3752850D01*
X5782309Y3771392D01*
X5763768Y3789934D01*
X5745225Y3799078D01*
X5708395Y3799078D01*
X5990843Y3799078D02*
G01*
X5898641Y3605276D01*
X5861558Y3799078D02*
G01*
X5990843Y3799078D01*
X6125718Y3799078D02*
G01*
X6051804Y3605276D01*
X6125718Y3799078D02*
G01*
X6199631Y3605276D01*
X6079490Y3669792D02*
G01*
X6171945Y3669792D01*
X6260591Y3799078D02*
G01*
X6260591Y3605276D01*
X6260591Y3799078D02*
G01*
X6343650Y3799078D01*
X6371590Y3789934D01*
X6380734Y3780789D01*
X6389877Y3762247D01*
X6389877Y3743705D01*
X6380734Y3725163D01*
X6371590Y3716020D01*
X6343650Y3706876D01*
X6260591Y3706876D02*
G01*
X6343650Y3706876D01*
X6371590Y3697478D01*
X6380734Y3688334D01*
X6389877Y3669792D01*
X6389877Y3642105D01*
X6380734Y3623563D01*
X6371590Y3614420D01*
X6343650Y3605276D01*
X6260591Y3605276D01*
X6450838Y3799078D02*
G01*
X6450838Y3605276D01*
X6450838Y3799078D02*
G01*
X6524752Y3605276D01*
X6598665Y3799078D02*
G01*
X6524752Y3605276D01*
X6598665Y3799078D02*
G01*
X6598665Y3605276D01*
X1092200Y7613904D02*
G01*
X1101344Y7618476D01*
X1114805Y7631937D01*
X1114805Y7536434D01*
X1084071Y7342631D02*
G01*
X1084071Y7347204D01*
X1088644Y7356094D01*
X1093215Y7360665D01*
X1102105Y7365237D01*
X1120394Y7365237D01*
X1129537Y7360665D01*
X1134110Y7356094D01*
X1138681Y7347204D01*
X1138681Y7338060D01*
X1134110Y7328915D01*
X1124965Y7315200D01*
X1079500Y7269734D01*
X1143254Y7269734D01*
X1088644Y7098537D02*
G01*
X1138681Y7098537D01*
X1111250Y7062215D01*
X1124965Y7062215D01*
X1134110Y7057644D01*
X1138681Y7053071D01*
X1143254Y7039610D01*
X1143254Y7030465D01*
X1138681Y7016750D01*
X1129537Y7007605D01*
X1115821Y7003034D01*
X1102105Y7003034D01*
X1088644Y7007605D01*
X1084071Y7012178D01*
X1079500Y7021321D01*
X1124965Y6857237D02*
G01*
X1079500Y6793737D01*
X1147571Y6793737D01*
X1124965Y6857237D02*
G01*
X1124965Y6761734D01*
X1134110Y6615937D02*
G01*
X1088644Y6615937D01*
X1084071Y6575044D01*
X1088644Y6579615D01*
X1102105Y6584187D01*
X1115821Y6584187D01*
X1129537Y6579615D01*
X1138681Y6570471D01*
X1143254Y6557010D01*
X1143254Y6547865D01*
X1138681Y6534150D01*
X1129537Y6525005D01*
X1115821Y6520434D01*
X1102105Y6520434D01*
X1088644Y6525005D01*
X1084071Y6529578D01*
X1079500Y6538721D01*
X1134110Y6335776D02*
G01*
X1129537Y6344665D01*
X1115821Y6349237D01*
X1106678Y6349237D01*
X1093215Y6344665D01*
X1084071Y6331204D01*
X1079500Y6308344D01*
X1079500Y6285737D01*
X1084071Y6267450D01*
X1093215Y6258305D01*
X1106678Y6253734D01*
X1111250Y6253734D01*
X1124965Y6258305D01*
X1134110Y6267450D01*
X1138681Y6281165D01*
X1138681Y6285737D01*
X1134110Y6299200D01*
X1124965Y6308344D01*
X1111250Y6312915D01*
X1106678Y6312915D01*
X1093215Y6308344D01*
X1084071Y6299200D01*
X1079500Y6285737D01*
X1155954Y6095237D02*
G01*
X1110487Y5999734D01*
X1092200Y6095237D02*
G01*
X1155954Y6095237D01*
X1102105Y5853937D02*
G01*
X1088644Y5849365D01*
X1084071Y5840476D01*
X1084071Y5831331D01*
X1088644Y5822187D01*
X1097787Y5817615D01*
X1115821Y5813044D01*
X1129537Y5808471D01*
X1138681Y5799581D01*
X1143254Y5790437D01*
X1143254Y5776721D01*
X1138681Y5767578D01*
X1134110Y5763005D01*
X1120394Y5758434D01*
X1102105Y5758434D01*
X1088644Y5763005D01*
X1084071Y5767578D01*
X1079500Y5776721D01*
X1079500Y5790437D01*
X1084071Y5799581D01*
X1093215Y5808471D01*
X1106678Y5813044D01*
X1124965Y5817615D01*
X1134110Y5822187D01*
X1138681Y5831331D01*
X1138681Y5840476D01*
X1134110Y5849365D01*
X1120394Y5853937D01*
X1102105Y5853937D01*
X1138681Y5568187D02*
G01*
X1134110Y5554471D01*
X1124965Y5545581D01*
X1111250Y5541010D01*
X1106678Y5541010D01*
X1093215Y5545581D01*
X1084071Y5554471D01*
X1079500Y5568187D01*
X1079500Y5572760D01*
X1084071Y5586476D01*
X1093215Y5595365D01*
X1106678Y5599937D01*
X1111250Y5599937D01*
X1124965Y5595365D01*
X1134110Y5586476D01*
X1138681Y5568187D01*
X1138681Y5545581D01*
X1134110Y5522721D01*
X1124965Y5509005D01*
X1111250Y5504434D01*
X1102105Y5504434D01*
X1088644Y5509005D01*
X1084071Y5518150D01*
X1054100Y5315204D02*
G01*
X1063244Y5319776D01*
X1076705Y5333237D01*
X1076705Y5237734D01*
X1134110Y5333237D02*
G01*
X1120394Y5328665D01*
X1111250Y5315204D01*
X1106931Y5292344D01*
X1106931Y5278881D01*
X1111250Y5256021D01*
X1120394Y5242305D01*
X1134110Y5237734D01*
X1143254Y5237734D01*
X1156715Y5242305D01*
X1165860Y5256021D01*
X1170431Y5278881D01*
X1170431Y5292344D01*
X1165860Y5315204D01*
X1156715Y5328665D01*
X1143254Y5333237D01*
X1134110Y5333237D01*
X1066800Y5061204D02*
G01*
X1075944Y5065776D01*
X1089405Y5079237D01*
X1089405Y4983734D01*
X1119631Y5061204D02*
G01*
X1128521Y5065776D01*
X1142237Y5079237D01*
X1142237Y4983734D01*
X1054100Y4794504D02*
G01*
X1063244Y4799076D01*
X1076705Y4812537D01*
X1076705Y4717034D01*
X1111250Y4789931D02*
G01*
X1111250Y4794504D01*
X1115821Y4803394D01*
X1120394Y4807965D01*
X1129537Y4812537D01*
X1147826Y4812537D01*
X1156715Y4807965D01*
X1161287Y4803394D01*
X1165860Y4794504D01*
X1165860Y4785360D01*
X1161287Y4776215D01*
X1152397Y4762500D01*
X1106931Y4717034D01*
X1170431Y4717034D01*
X1054100Y4553204D02*
G01*
X1063244Y4557776D01*
X1076705Y4571237D01*
X1076705Y4475734D01*
X1115821Y4571237D02*
G01*
X1165860Y4571237D01*
X1138681Y4534915D01*
X1152397Y4534915D01*
X1161287Y4530344D01*
X1165860Y4525771D01*
X1170431Y4512310D01*
X1170431Y4503165D01*
X1165860Y4489450D01*
X1156715Y4480305D01*
X1143254Y4475734D01*
X1129537Y4475734D01*
X1115821Y4480305D01*
X1111250Y4484878D01*
X1106931Y4494021D01*
X1054100Y4311904D02*
G01*
X1063244Y4316476D01*
X1076705Y4329937D01*
X1076705Y4234434D01*
X1152397Y4329937D02*
G01*
X1106931Y4266437D01*
X1175004Y4266437D01*
X1152397Y4329937D02*
G01*
X1152397Y4234434D01*
X1054100Y4045204D02*
G01*
X1063244Y4049776D01*
X1076705Y4063237D01*
X1076705Y3967734D01*
X1161287Y4063237D02*
G01*
X1115821Y4063237D01*
X1111250Y4022344D01*
X1115821Y4026915D01*
X1129537Y4031487D01*
X1143254Y4031487D01*
X1156715Y4026915D01*
X1165860Y4017771D01*
X1170431Y4004310D01*
X1170431Y3995165D01*
X1165860Y3981450D01*
X1156715Y3972305D01*
X1143254Y3967734D01*
X1129537Y3967734D01*
X1115821Y3972305D01*
X1111250Y3976878D01*
X1106931Y3986021D01*
D14*
X1333500Y7913115D02*
G01*
X1333500Y7835137D01*
X1338579Y7819644D01*
X1348994Y7809229D01*
X1364742Y7804150D01*
X1375155Y7804150D01*
X1390650Y7809229D01*
X1401063Y7819644D01*
X1406144Y7835137D01*
X1406144Y7913115D01*
X1440434Y7892287D02*
G01*
X1450847Y7897621D01*
X1466595Y7913115D01*
X1466595Y7804150D01*
X5803900Y7252715D02*
G01*
X5827013Y7155687D01*
X5850127Y7252715D02*
G01*
X5827013Y7155687D01*
X5850127Y7252715D02*
G01*
X5873241Y7155687D01*
X5896356Y7252715D02*
G01*
X5873241Y7155687D01*
X5926836Y7192518D02*
G01*
X5982208Y7192518D01*
X5982208Y7201915D01*
X5977636Y7211060D01*
X5972809Y7215631D01*
X5963665Y7220204D01*
X5949950Y7220204D01*
X5940552Y7215631D01*
X5931408Y7206487D01*
X5926836Y7192518D01*
X5926836Y7183373D01*
X5931408Y7169404D01*
X5940552Y7160260D01*
X5949950Y7155687D01*
X5963665Y7155687D01*
X5972809Y7160260D01*
X5982208Y7169404D01*
X6012688Y7252715D02*
G01*
X6012688Y7155687D01*
X6012688Y7252715D02*
G01*
X6049518Y7155687D01*
X6086602Y7252715D02*
G01*
X6049518Y7155687D01*
X6086602Y7252715D02*
G01*
X6086602Y7155687D01*
X6140195Y7220204D02*
G01*
X6130797Y7215631D01*
X6121654Y7206487D01*
X6117081Y7192518D01*
X6117081Y7183373D01*
X6121654Y7169404D01*
X6130797Y7160260D01*
X6140195Y7155687D01*
X6153911Y7155687D01*
X6163309Y7160260D01*
X6172454Y7169404D01*
X6177025Y7183373D01*
X6177025Y7192518D01*
X6172454Y7206487D01*
X6163309Y7215631D01*
X6153911Y7220204D01*
X6140195Y7220204D01*
X6258306Y7206487D02*
G01*
X6253734Y7215631D01*
X6239763Y7220204D01*
X6226047Y7220204D01*
X6212077Y7215631D01*
X6207506Y7206487D01*
X6212077Y7197089D01*
X6221475Y7192518D01*
X6244590Y7187945D01*
X6253734Y7183373D01*
X6258306Y7174229D01*
X6258306Y7169404D01*
X6253734Y7160260D01*
X6239763Y7155687D01*
X6226047Y7155687D01*
X6212077Y7160260D01*
X6207506Y7169404D01*
X6359906Y7252715D02*
G01*
X6359906Y7155687D01*
X6359906Y7252715D02*
G01*
X6392163Y7252715D01*
X6406134Y7247889D01*
X6415277Y7238745D01*
X6419850Y7229602D01*
X6424675Y7215631D01*
X6424675Y7192518D01*
X6419850Y7178802D01*
X6415277Y7169404D01*
X6406134Y7160260D01*
X6392163Y7155687D01*
X6359906Y7155687D01*
X6455156Y7234173D02*
G01*
X6464300Y7238745D01*
X6478270Y7252715D01*
X6478270Y7155687D01*
X6579870Y7220204D02*
G01*
X6579870Y7155687D01*
X6579870Y7201915D02*
G01*
X6593586Y7215631D01*
X6602729Y7220204D01*
X6616700Y7220204D01*
X6625843Y7215631D01*
X6630670Y7201915D01*
X6630670Y7155687D01*
X6630670Y7201915D02*
G01*
X6644386Y7215631D01*
X6653529Y7220204D01*
X6667500Y7220204D01*
X6676643Y7215631D01*
X6681470Y7201915D01*
X6681470Y7155687D01*
X6711950Y7252715D02*
G01*
X6716522Y7247889D01*
X6721093Y7252715D01*
X6716522Y7257287D01*
X6711950Y7252715D01*
X6716522Y7220204D02*
G01*
X6716522Y7155687D01*
X6751574Y7220204D02*
G01*
X6751574Y7155687D01*
X6751574Y7201915D02*
G01*
X6765290Y7215631D01*
X6774688Y7220204D01*
X6788404Y7220204D01*
X6797802Y7215631D01*
X6802374Y7201915D01*
X6802374Y7155687D01*
X6832854Y7252715D02*
G01*
X6837425Y7247889D01*
X6841997Y7252715D01*
X6837425Y7257287D01*
X6832854Y7252715D01*
X6837425Y7220204D02*
G01*
X6837425Y7155687D01*
X5600700Y6833362D02*
G01*
X5600700Y6760463D01*
X5600700Y6833362D02*
G01*
X5631941Y6833362D01*
X5642356Y6829805D01*
X5645658Y6826250D01*
X5649213Y6819392D01*
X5649213Y6812534D01*
X5645658Y6805676D01*
X5642356Y6802120D01*
X5631941Y6798563D01*
X5600700Y6798563D01*
X5624829Y6798563D02*
G01*
X5649213Y6760463D01*
X5720588Y6822947D02*
G01*
X5713729Y6829805D01*
X5703315Y6833362D01*
X5689345Y6833362D01*
X5678931Y6829805D01*
X5672074Y6822947D01*
X5672074Y6816089D01*
X5675629Y6808978D01*
X5678931Y6805676D01*
X5685790Y6802120D01*
X5706618Y6795262D01*
X5713729Y6791705D01*
X5717031Y6788150D01*
X5720588Y6781292D01*
X5720588Y6770878D01*
X5713729Y6764020D01*
X5703315Y6760463D01*
X5689345Y6760463D01*
X5678931Y6764020D01*
X5672074Y6770878D01*
X5767577Y6833362D02*
G01*
X5767577Y6760463D01*
X5743447Y6833362D02*
G01*
X5791961Y6833362D01*
X5653786Y6579362D02*
G01*
X5626100Y6506463D01*
X5653786Y6579362D02*
G01*
X5681472Y6506463D01*
X5636513Y6530847D02*
G01*
X5671058Y6530847D01*
X5725159Y6579362D02*
G01*
X5714745Y6575805D01*
X5707888Y6565392D01*
X5704331Y6548120D01*
X5704331Y6537705D01*
X5707888Y6520434D01*
X5714745Y6510020D01*
X5725159Y6506463D01*
X5732018Y6506463D01*
X5742431Y6510020D01*
X5749290Y6520434D01*
X5752845Y6537705D01*
X5752845Y6548120D01*
X5749290Y6565392D01*
X5742431Y6575805D01*
X5732018Y6579362D01*
X5725159Y6579362D01*
X5626100Y6338062D02*
G01*
X5626100Y6265163D01*
X5626100Y6338062D02*
G01*
X5650229Y6338062D01*
X5660643Y6334505D01*
X5667756Y6327647D01*
X5671058Y6320789D01*
X5674613Y6310376D01*
X5674613Y6292850D01*
X5671058Y6282689D01*
X5667756Y6275578D01*
X5660643Y6268720D01*
X5650229Y6265163D01*
X5626100Y6265163D01*
X5718302Y6338062D02*
G01*
X5707888Y6334505D01*
X5701029Y6324092D01*
X5697474Y6306820D01*
X5697474Y6296405D01*
X5701029Y6279134D01*
X5707888Y6268720D01*
X5718302Y6265163D01*
X5725159Y6265163D01*
X5735574Y6268720D01*
X5742431Y6279134D01*
X5745988Y6296405D01*
X5745988Y6306820D01*
X5742431Y6324092D01*
X5735574Y6334505D01*
X5725159Y6338062D01*
X5718302Y6338062D01*
X5626100Y6084062D02*
G01*
X5626100Y6011163D01*
X5626100Y6084062D02*
G01*
X5650229Y6084062D01*
X5660643Y6080505D01*
X5667756Y6073647D01*
X5671058Y6066789D01*
X5674613Y6056376D01*
X5674613Y6038850D01*
X5671058Y6028689D01*
X5667756Y6021578D01*
X5660643Y6014720D01*
X5650229Y6011163D01*
X5626100Y6011163D01*
X5739129Y6084062D02*
G01*
X5704331Y6084062D01*
X5701029Y6052820D01*
X5704331Y6056376D01*
X5714745Y6059678D01*
X5725159Y6059678D01*
X5735574Y6056376D01*
X5742431Y6049263D01*
X5745988Y6038850D01*
X5745988Y6031992D01*
X5742431Y6021578D01*
X5735574Y6014720D01*
X5725159Y6011163D01*
X5714745Y6011163D01*
X5704331Y6014720D01*
X5701029Y6018276D01*
X5697474Y6025134D01*
X5626100Y5817362D02*
G01*
X5626100Y5744463D01*
X5626100Y5817362D02*
G01*
X5650229Y5817362D01*
X5660643Y5813805D01*
X5667756Y5806947D01*
X5671058Y5800089D01*
X5674613Y5789676D01*
X5674613Y5772150D01*
X5671058Y5761989D01*
X5667756Y5754878D01*
X5660643Y5748020D01*
X5650229Y5744463D01*
X5626100Y5744463D01*
X5739129Y5806947D02*
G01*
X5735574Y5813805D01*
X5725159Y5817362D01*
X5718302Y5817362D01*
X5707888Y5813805D01*
X5701029Y5803392D01*
X5697474Y5786120D01*
X5697474Y5768847D01*
X5701029Y5754878D01*
X5707888Y5748020D01*
X5718302Y5744463D01*
X5721604Y5744463D01*
X5732018Y5748020D01*
X5739129Y5754878D01*
X5742431Y5765292D01*
X5742431Y5768847D01*
X5739129Y5779262D01*
X5732018Y5786120D01*
X5721604Y5789676D01*
X5718302Y5789676D01*
X5707888Y5786120D01*
X5701029Y5779262D01*
X5697474Y5768847D01*
X5613400Y5563362D02*
G01*
X5613400Y5490463D01*
X5613400Y5563362D02*
G01*
X5637529Y5563362D01*
X5647943Y5559805D01*
X5655056Y5552947D01*
X5658358Y5546089D01*
X5661913Y5535676D01*
X5661913Y5518150D01*
X5658358Y5507989D01*
X5655056Y5500878D01*
X5647943Y5494020D01*
X5637529Y5490463D01*
X5613400Y5490463D01*
X5733288Y5563362D02*
G01*
X5698490Y5490463D01*
X5684774Y5563362D02*
G01*
X5733288Y5563362D01*
X5626100Y5322062D02*
G01*
X5626100Y5249163D01*
X5626100Y5322062D02*
G01*
X5650229Y5322062D01*
X5660643Y5318505D01*
X5667756Y5311647D01*
X5671058Y5304789D01*
X5674613Y5294376D01*
X5674613Y5276850D01*
X5671058Y5266689D01*
X5667756Y5259578D01*
X5660643Y5252720D01*
X5650229Y5249163D01*
X5626100Y5249163D01*
X5714745Y5322062D02*
G01*
X5704331Y5318505D01*
X5701029Y5311647D01*
X5701029Y5304789D01*
X5704331Y5297678D01*
X5711190Y5294376D01*
X5725159Y5290820D01*
X5735574Y5287263D01*
X5742431Y5280405D01*
X5745988Y5273547D01*
X5745988Y5263134D01*
X5742431Y5256276D01*
X5739129Y5252720D01*
X5728715Y5249163D01*
X5714745Y5249163D01*
X5704331Y5252720D01*
X5701029Y5256276D01*
X5697474Y5263134D01*
X5697474Y5273547D01*
X5701029Y5280405D01*
X5707888Y5287263D01*
X5718302Y5290820D01*
X5732018Y5294376D01*
X5739129Y5297678D01*
X5742431Y5304789D01*
X5742431Y5311647D01*
X5739129Y5318505D01*
X5728715Y5322062D01*
X5714745Y5322062D01*
X5569458Y5029962D02*
G01*
X5607558Y5029962D01*
X5586729Y5002276D01*
X5597143Y5002276D01*
X5604256Y4998720D01*
X5607558Y4995163D01*
X5611113Y4984750D01*
X5611113Y4977892D01*
X5607558Y4967478D01*
X5600700Y4960620D01*
X5590286Y4957063D01*
X5579872Y4957063D01*
X5569458Y4960620D01*
X5566156Y4964176D01*
X5562600Y4971034D01*
X5633974Y5029962D02*
G01*
X5661659Y4957063D01*
X5689345Y5029962D02*
G01*
X5661659Y4957063D01*
X5719063Y5029962D02*
G01*
X5757163Y5029962D01*
X5736590Y5002276D01*
X5746750Y5002276D01*
X5753861Y4998720D01*
X5757163Y4995163D01*
X5760720Y4984750D01*
X5760720Y4977892D01*
X5757163Y4967478D01*
X5750306Y4960620D01*
X5739891Y4957063D01*
X5729477Y4957063D01*
X5719063Y4960620D01*
X5715761Y4964176D01*
X5712206Y4971034D01*
X7039356Y5017262D02*
G01*
X7004558Y5017262D01*
X7001256Y4986020D01*
X7004558Y4989576D01*
X7014972Y4992878D01*
X7025386Y4992878D01*
X7035800Y4989576D01*
X7042658Y4982463D01*
X7046213Y4972050D01*
X7046213Y4965192D01*
X7042658Y4954778D01*
X7035800Y4947920D01*
X7025386Y4944363D01*
X7014972Y4944363D01*
X7004558Y4947920D01*
X7001256Y4951476D01*
X6997700Y4958334D01*
X7069074Y5017262D02*
G01*
X7096759Y4944363D01*
X7124445Y5017262D02*
G01*
X7096759Y4944363D01*
X6973570Y5292089D02*
G01*
X6970013Y5298947D01*
X6963156Y5305805D01*
X6956043Y5309362D01*
X6942327Y5309362D01*
X6935470Y5305805D01*
X6928358Y5298947D01*
X6925056Y5292089D01*
X6921500Y5281676D01*
X6921500Y5264150D01*
X6925056Y5253989D01*
X6928358Y5246878D01*
X6935470Y5240020D01*
X6942327Y5236463D01*
X6956043Y5236463D01*
X6963156Y5240020D01*
X6970013Y5246878D01*
X6973570Y5253989D01*
X6973570Y5264150D01*
X6956043Y5264150D02*
G01*
X6973570Y5264150D01*
X6996429Y5309362D02*
G01*
X6996429Y5236463D01*
X6996429Y5309362D02*
G01*
X7044690Y5236463D01*
X7044690Y5309362D02*
G01*
X7044690Y5236463D01*
X7067550Y5309362D02*
G01*
X7067550Y5236463D01*
X7067550Y5309362D02*
G01*
X7091934Y5309362D01*
X7102347Y5305805D01*
X7109206Y5298947D01*
X7112761Y5292089D01*
X7116063Y5281676D01*
X7116063Y5264150D01*
X7112761Y5253989D01*
X7109206Y5246878D01*
X7102347Y5240020D01*
X7091934Y5236463D01*
X7067550Y5236463D01*
X6972300Y5563362D02*
G01*
X6972300Y5490463D01*
X6972300Y5563362D02*
G01*
X6996429Y5563362D01*
X7006843Y5559805D01*
X7013956Y5552947D01*
X7017258Y5546089D01*
X7020813Y5535676D01*
X7020813Y5518150D01*
X7017258Y5507989D01*
X7013956Y5500878D01*
X7006843Y5494020D01*
X6996429Y5490463D01*
X6972300Y5490463D01*
X7078218Y5563362D02*
G01*
X7043674Y5514847D01*
X7095490Y5514847D01*
X7078218Y5563362D02*
G01*
X7078218Y5490463D01*
X6972300Y5804662D02*
G01*
X6972300Y5731763D01*
X6972300Y5804662D02*
G01*
X6996429Y5804662D01*
X7006843Y5801105D01*
X7013956Y5794247D01*
X7017258Y5787389D01*
X7020813Y5776976D01*
X7020813Y5759450D01*
X7017258Y5749289D01*
X7013956Y5742178D01*
X7006843Y5735320D01*
X6996429Y5731763D01*
X6972300Y5731763D01*
X7050531Y5804662D02*
G01*
X7088631Y5804662D01*
X7067804Y5776976D01*
X7078218Y5776976D01*
X7085329Y5773420D01*
X7088631Y5769863D01*
X7092188Y5759450D01*
X7092188Y5752592D01*
X7088631Y5742178D01*
X7081774Y5735320D01*
X7071359Y5731763D01*
X7060945Y5731763D01*
X7050531Y5735320D01*
X7047229Y5738876D01*
X7043674Y5745734D01*
X6985000Y6084062D02*
G01*
X6985000Y6011163D01*
X6985000Y6084062D02*
G01*
X7009129Y6084062D01*
X7019543Y6080505D01*
X7026656Y6073647D01*
X7029958Y6066789D01*
X7033513Y6056376D01*
X7033513Y6038850D01*
X7029958Y6028689D01*
X7026656Y6021578D01*
X7019543Y6014720D01*
X7009129Y6011163D01*
X6985000Y6011163D01*
X7059929Y6066789D02*
G01*
X7059929Y6070092D01*
X7063231Y6076950D01*
X7066788Y6080505D01*
X7073645Y6084062D01*
X7087615Y6084062D01*
X7094474Y6080505D01*
X7098029Y6076950D01*
X7101331Y6070092D01*
X7101331Y6063234D01*
X7098029Y6056376D01*
X7090918Y6045962D01*
X7056374Y6011163D01*
X7104888Y6011163D01*
X6997700Y6325362D02*
G01*
X6997700Y6252463D01*
X6997700Y6325362D02*
G01*
X7021829Y6325362D01*
X7032243Y6321805D01*
X7039356Y6314947D01*
X7042658Y6308089D01*
X7046213Y6297676D01*
X7046213Y6280150D01*
X7042658Y6269989D01*
X7039356Y6262878D01*
X7032243Y6256020D01*
X7021829Y6252463D01*
X6997700Y6252463D01*
X7069074Y6311392D02*
G01*
X7075931Y6314947D01*
X7086345Y6325362D01*
X7086345Y6252463D01*
X6985000Y6553962D02*
G01*
X6985000Y6481063D01*
X6985000Y6553962D02*
G01*
X7016241Y6553962D01*
X7026656Y6550405D01*
X7029958Y6546850D01*
X7033513Y6539992D01*
X7033513Y6533134D01*
X7029958Y6526276D01*
X7026656Y6522720D01*
X7016241Y6519163D01*
X6985000Y6519163D01*
X7009129Y6519163D02*
G01*
X7033513Y6481063D01*
X7056374Y6553962D02*
G01*
X7104888Y6481063D01*
X7104888Y6553962D02*
G01*
X7056374Y6481063D01*
X6996429Y6820662D02*
G01*
X6996429Y6747763D01*
X6972300Y6820662D02*
G01*
X7020813Y6820662D01*
X7043674Y6820662D02*
G01*
X7092188Y6747763D01*
X7092188Y6820662D02*
G01*
X7043674Y6747763D01*
X7037831Y3821429D02*
G01*
X7037831Y3675887D01*
X7028688Y3648710D01*
X7019543Y3639565D01*
X7001509Y3630421D01*
X6983222Y3630421D01*
X6965188Y3639565D01*
X6956043Y3648710D01*
X6946900Y3675887D01*
X6946900Y3693921D01*
X7206995Y3757676D02*
G01*
X7206995Y3630421D01*
X7206995Y3730497D02*
G01*
X7188708Y3748531D01*
X7170420Y3757676D01*
X7143241Y3757676D01*
X7125208Y3748531D01*
X7106920Y3730497D01*
X7097775Y3703065D01*
X7097775Y3685031D01*
X7106920Y3657600D01*
X7125208Y3639565D01*
X7143241Y3630421D01*
X7170420Y3630421D01*
X7188708Y3639565D01*
X7206995Y3657600D01*
X7266940Y3757676D02*
G01*
X7266940Y3630421D01*
X7266940Y3721354D02*
G01*
X7294118Y3748531D01*
X7312406Y3757676D01*
X7339584Y3757676D01*
X7357872Y3748531D01*
X7367015Y3721354D01*
X7367015Y3630421D01*
X7436104Y3675887D02*
G01*
X7426959Y3666744D01*
X7436104Y3657600D01*
X7444993Y3666744D01*
X7436104Y3675887D01*
X7514081Y3775963D02*
G01*
X7514081Y3784854D01*
X7523225Y3803142D01*
X7532370Y3812286D01*
X7550658Y3821429D01*
X7586979Y3821429D01*
X7605013Y3812286D01*
X7614158Y3803142D01*
X7623302Y3784854D01*
X7623302Y3766820D01*
X7614158Y3748531D01*
X7595870Y3721354D01*
X7505191Y3630421D01*
X7632445Y3630421D01*
X7701534Y3775963D02*
G01*
X7701534Y3784854D01*
X7710424Y3803142D01*
X7719568Y3812286D01*
X7737856Y3821429D01*
X7774177Y3821429D01*
X7792465Y3812286D01*
X7801356Y3803142D01*
X7810500Y3784854D01*
X7810500Y3766820D01*
X7801356Y3748531D01*
X7783322Y3721354D01*
X7692390Y3630421D01*
X7819643Y3630421D01*
X6172200Y4775707D02*
G01*
X6172200Y4740910D01*
X6174486Y4734052D01*
X6179058Y4729479D01*
X6186170Y4727194D01*
X6190741Y4727194D01*
X6197600Y4729479D01*
X6202172Y4734052D01*
X6204458Y4740910D01*
X6204458Y4775707D01*
X6252209Y4768850D02*
G01*
X6247384Y4773421D01*
X6240525Y4775707D01*
X6231381Y4775707D01*
X6224270Y4773421D01*
X6219697Y4768850D01*
X6219697Y4764023D01*
X6221984Y4759452D01*
X6224270Y4757165D01*
X6229095Y4754879D01*
X6242811Y4750307D01*
X6247384Y4748021D01*
X6249670Y4745736D01*
X6252209Y4740910D01*
X6252209Y4734052D01*
X6247384Y4729479D01*
X6240525Y4727194D01*
X6231381Y4727194D01*
X6224270Y4729479D01*
X6219697Y4734052D01*
X6267450Y4775707D02*
G01*
X6267450Y4727194D01*
X6267450Y4775707D02*
G01*
X6288024Y4775707D01*
X6295136Y4773421D01*
X6297422Y4771136D01*
X6299708Y4766310D01*
X6299708Y4761737D01*
X6297422Y4757165D01*
X6295136Y4754879D01*
X6288024Y4752594D01*
X6267450Y4752594D02*
G01*
X6288024Y4752594D01*
X6295136Y4750307D01*
X6297422Y4748021D01*
X6299708Y4743450D01*
X6299708Y4736337D01*
X6297422Y4731765D01*
X6295136Y4729479D01*
X6288024Y4727194D01*
X6267450Y4727194D01*
X6314947Y4775707D02*
G01*
X6314947Y4727194D01*
X6314947Y4775707D02*
G01*
X6333490Y4727194D01*
X6351777Y4775707D02*
G01*
X6333490Y4727194D01*
X6351777Y4775707D02*
G01*
X6351777Y4727194D01*
X6367018Y4775707D02*
G01*
X6367018Y4727194D01*
X6417056Y4764023D02*
G01*
X6414770Y4768850D01*
X6409943Y4773421D01*
X6405372Y4775707D01*
X6396227Y4775707D01*
X6391656Y4773421D01*
X6386829Y4768850D01*
X6384543Y4764023D01*
X6382258Y4757165D01*
X6382258Y4745736D01*
X6384543Y4738623D01*
X6386829Y4734052D01*
X6391656Y4729479D01*
X6396227Y4727194D01*
X6405372Y4727194D01*
X6409943Y4729479D01*
X6414770Y4734052D01*
X6417056Y4738623D01*
X6432295Y4775707D02*
G01*
X6432295Y4727194D01*
X6432295Y4775707D02*
G01*
X6452870Y4775707D01*
X6459981Y4773421D01*
X6462268Y4771136D01*
X6464554Y4766310D01*
X6464554Y4761737D01*
X6462268Y4757165D01*
X6459981Y4754879D01*
X6452870Y4752594D01*
X6432295Y4752594D01*
X6448297Y4752594D02*
G01*
X6464554Y4727194D01*
X6493509Y4775707D02*
G01*
X6488938Y4773421D01*
X6484365Y4768850D01*
X6482079Y4764023D01*
X6479793Y4757165D01*
X6479793Y4745736D01*
X6482079Y4738623D01*
X6484365Y4734052D01*
X6488938Y4729479D01*
X6493509Y4727194D01*
X6502908Y4727194D01*
X6507479Y4729479D01*
X6512052Y4734052D01*
X6514338Y4738623D01*
X6516624Y4745736D01*
X6516624Y4757165D01*
X6514338Y4764023D01*
X6512052Y4768850D01*
X6507479Y4773421D01*
X6502908Y4775707D01*
X6493509Y4775707D01*
X5422900Y4585462D02*
G01*
X5422900Y4512563D01*
X5422900Y4585462D02*
G01*
X5454141Y4585462D01*
X5464556Y4581905D01*
X5467858Y4578350D01*
X5471413Y4571492D01*
X5471413Y4564634D01*
X5467858Y4557776D01*
X5464556Y4554220D01*
X5454141Y4550663D01*
X5422900Y4550663D01*
X5447029Y4550663D02*
G01*
X5471413Y4512563D01*
X5494274Y4585462D02*
G01*
X5494274Y4512563D01*
X5494274Y4585462D02*
G01*
X5539231Y4585462D01*
X5494274Y4550663D02*
G01*
X5521959Y4550663D01*
X5494274Y4512563D02*
G01*
X5539231Y4512563D01*
X5610606Y4575047D02*
G01*
X5603747Y4581905D01*
X5593334Y4585462D01*
X5579363Y4585462D01*
X5568950Y4581905D01*
X5562091Y4575047D01*
X5562091Y4568189D01*
X5565647Y4561078D01*
X5568950Y4557776D01*
X5576061Y4554220D01*
X5596890Y4547362D01*
X5603747Y4543805D01*
X5607050Y4540250D01*
X5610606Y4533392D01*
X5610606Y4522978D01*
X5603747Y4516120D01*
X5593334Y4512563D01*
X5579363Y4512563D01*
X5568950Y4516120D01*
X5562091Y4522978D01*
X5633465Y4585462D02*
G01*
X5633465Y4512563D01*
X5633465Y4585462D02*
G01*
X5678424Y4585462D01*
X5633465Y4550663D02*
G01*
X5661152Y4550663D01*
X5633465Y4512563D02*
G01*
X5678424Y4512563D01*
X5725668Y4585462D02*
G01*
X5725668Y4512563D01*
X5701284Y4585462D02*
G01*
X5749797Y4585462D01*
X5821172Y4575047D02*
G01*
X5814313Y4581905D01*
X5803900Y4585462D01*
X5789929Y4585462D01*
X5779770Y4581905D01*
X5772658Y4575047D01*
X5772658Y4568189D01*
X5776213Y4561078D01*
X5779770Y4557776D01*
X5786627Y4554220D01*
X5807456Y4547362D01*
X5814313Y4543805D01*
X5817870Y4540250D01*
X5821172Y4533392D01*
X5821172Y4522978D01*
X5814313Y4516120D01*
X5803900Y4512563D01*
X5789929Y4512563D01*
X5779770Y4516120D01*
X5772658Y4522978D01*
X5844031Y4585462D02*
G01*
X5861304Y4512563D01*
X5878829Y4585462D02*
G01*
X5861304Y4512563D01*
X5878829Y4585462D02*
G01*
X5896102Y4512563D01*
X5913374Y4585462D02*
G01*
X5896102Y4512563D01*
X5936234Y4585462D02*
G01*
X5936234Y4512563D01*
X5983224Y4585462D02*
G01*
X5983224Y4512563D01*
X5959093Y4585462D02*
G01*
X6007608Y4585462D01*
X6082284Y4568189D02*
G01*
X6078981Y4575047D01*
X6071870Y4581905D01*
X6065011Y4585462D01*
X6051295Y4585462D01*
X6044184Y4581905D01*
X6037325Y4575047D01*
X6033770Y4568189D01*
X6030468Y4557776D01*
X6030468Y4540250D01*
X6033770Y4530089D01*
X6037325Y4522978D01*
X6044184Y4516120D01*
X6051295Y4512563D01*
X6065011Y4512563D01*
X6071870Y4516120D01*
X6078981Y4522978D01*
X6082284Y4530089D01*
X6105143Y4585462D02*
G01*
X6105143Y4512563D01*
X6153658Y4585462D02*
G01*
X6153658Y4512563D01*
X6105143Y4550663D02*
G01*
X6153658Y4550663D01*
D10*
X1516999Y7696200D02*
G01*
X1277000Y7696200D01*
X1277000Y7696200D02*
G01*
X1277000Y3886200D01*
X1277000Y3886200D02*
G01*
X1516999Y3886200D01*
X1516999Y3886200D02*
G01*
X1516999Y7696200D01*
X5565140Y6974839D02*
G01*
X5565140Y7553960D01*
X7165340Y7553960D01*
X7165340Y6974839D01*
X5565140Y6974839D01*
X5565140Y5143500D01*
X7162800Y5143500D01*
X7162800Y6974839D02*
G01*
X7165340Y6974839D01*
X7165340Y5143500D01*
X7645400Y7302500D02*
G01*
X7645400Y4127500D01*
X5105400Y4127500D01*
X5105400Y7302500D01*
X5359400Y7556500D02*
G01*
X7391400Y7556500D01*
X5994400Y4127500D02*
G01*
X6756400Y4127500D01*
X6756400Y4635500D01*
X5994400Y4635500D01*
X5994400Y4127500D01*
X5613400Y4762500D02*
G01*
X5232400Y4762500D01*
X5232400Y4254500D01*
X5613400Y4254500D01*
X5613400Y4762500D01*
G75*
G01*
X5105403Y7302497D02*
G02*
X5359403Y7556497I253999J1D01*
G75*
G01*
X7391397Y7556497D02*
G02*
X7645397Y7302497I1J-253999D01*
M02*
